# xmcd
#
# Track frame offsets:
#	150
#	14448
#	30356
#	42356
#	59295
#	73586
#	88999
#	103130
#	119205
#	131205
#	147245
#	163445
#	179534
#	197524
#	214205
#	230482
#	245505
#	261538
#	277592
#	293144
#
# Disc length: 4099 seconds
#
# Revision: 0
# Processed by: cddbd v1.5.1PL2 Copyright (c) Steve Scherf et al.
# Submitted via: SynApp - FreeCDDB Version: 2.0
#
DISCID=3f100114
DTITLE=Kastelruther Spatzen - Das beste der Kastelruther Spatzen
DYEAR=1900
DGENRE=Volksmusik
TTITLE0=Katelruther Spatzen - Feuer im ewigen Eis
TTITLE1=An heiligen Wassern
TTITLE2=Auf der Strasse der Rosen
TTITLE3=Im Tal der schwarzen Rosen
TTITLE4=Das schwarze Schiff
TTITLE5=So ein Mädchen wie du
TTITLE6=Ich denk wieder nur an dich
TTITLE7=Das Mädchen mit den erloschenen Augen
TTITLE8=Tränen passen nicht zu dir
TTITLE9=Alexandra komm heim
TTITLE10=Gefunden auf der Autobahn
TTITLE11=Träume sind nur Fantasie
TTITLE12=Die Frau von einem Musikanten
TTITLE13=Kleine Annabell
TTITLE14=Der Spatz in der Hand
TTITLE15=Sehnsucht nach Liebe
TTITLE16=Atlantis der Berge
TTITLE17=
TTITLE18=...
TTITLE19=
EXTD=
EXTT0=
EXTT1=
EXTT2=
EXTT3=
EXTT4=
EXTT5=
EXTT6=
EXTT7=
EXTT8=
EXTT9=
EXTT10=
EXTT11=
EXTT12=
EXTT13=
EXTT14=
EXTT15=
EXTT16=
EXTT17=
EXTT18=
EXTT19=
PLAYORDER=
